<?xml version="1.0" encoding="utf-8"?>
<!-- Generator: Adobe Illustrator 16.0.4, SVG Export Plug-In . SVG Version: 6.00 Build 0)  -->
<!DOCTYPE svg PUBLIC "-//W3C//DTD SVG 1.1//EN" "http://www.w3.org/Graphics/SVG/1.1/DTD/svg11.dtd">
<svg version="1.1" id="Layer_1" xmlns="http://www.w3.org/2000/svg" xmlns:xlink="http://www.w3.org/1999/xlink" x="0px" y="0px"
	 width="330px" height="10px" viewBox="0 0 330 10" enable-background="new 0 0 330 10" xml:space="preserve">
<g display="none">
	<text transform="matrix(1 0 0 1 0 10.3359)" display="inline" fill="#FFFFFF" font-family="'Interstate-Bold'" font-size="12.16">C</text>
	
		<text transform="matrix(1 0 0 1 8.147 10.3359)" display="inline" fill="#FFFFFF" font-family="'Interstate-Bold'" font-size="12.16">L</text>
	
		<text transform="matrix(1 0 0 1 15.3579 10.3359)" display="inline" fill="#FFFFFF" font-family="'Interstate-Bold'" font-size="12.16">O</text>
	
		<text transform="matrix(1 0 0 1 24.1011 10.3359)" display="inline" fill="#FFFFFF" font-family="'Interstate-Bold'" font-size="12.16">U</text>
	
		<text transform="matrix(1 0 0 1 33.063 10.3359)" display="inline" fill="#FFFFFF" font-family="'Interstate-Bold'" font-size="12.16">D</text>
	
		<text transform="matrix(1 0 0 1 41.6597 10.3359)" display="inline" fill="#FFFFFF" font-family="'Interstate-Bold'" font-size="12.16">F</text>
	
		<text transform="matrix(1 0 0 1 48.8467 10.3359)" display="inline" fill="#FFFFFF" font-family="'Interstate-Bold'" font-size="12.16">O</text>
	
		<text transform="matrix(1 0 0 1 57.5898 10.3359)" display="inline" fill="#FFFFFF" font-family="'Interstate-Bold'" font-size="12.16">R</text>
	
		<text transform="matrix(1 0 0 1 66.2715 10.3359)" display="inline" fill="#FFFFFF" font-family="'Interstate-Bold'" font-size="12.16">M</text>
	
		<text transform="matrix(1 0 0 1 76.4248 10.3359)" display="inline" fill="#FFFFFF" font-family="'Interstate-Bold'" font-size="12.16">S</text>
	
		<text transform="matrix(1 0 0 1 84.4629 10.3359)" display="inline" fill="#FFFFFF" font-family="'Interstate-Bold'" font-size="12.16"> </text>
	
		<text transform="matrix(1 0 0 1 87.9893 10.3359)" display="inline" fill="#FFFFFF" font-family="'Interstate-Bold'" font-size="12.16">M</text>
	
		<text transform="matrix(1 0 0 1 98.1426 10.3359)" display="inline" fill="#FFFFFF" font-family="'Interstate-Bold'" font-size="12.16">A</text>
	
		<text transform="matrix(1 0 0 1 107.2627 10.3359)" display="inline" fill="#FFFFFF" font-family="'Interstate-Bold'" font-size="12.16">N</text>
	
		<text transform="matrix(1 0 0 1 116.3457 10.3359)" display="inline" fill="#FFFFFF" font-family="'Interstate-Bold'" font-size="12.16">A</text>
	
		<text transform="matrix(1 0 0 1 125.1621 10.3359)" display="inline" fill="#FFFFFF" font-family="'Interstate-Bold'" font-size="12.16">G</text>
	
		<text transform="matrix(1 0 0 1 133.6484 10.3359)" display="inline" fill="#FFFFFF" font-family="'Interstate-Bold'" font-size="12.16">E</text>
	
		<text transform="matrix(1 0 0 1 141.5527 10.3359)" display="inline" fill="#FFFFFF" font-family="'Interstate-Bold'" font-size="12.16">M</text>
	
		<text transform="matrix(1 0 0 1 151.707 10.3359)" display="inline" fill="#FFFFFF" font-family="'Interstate-Bold'" font-size="12.16">E</text>
	
		<text transform="matrix(1 0 0 1 159.6113 10.3359)" display="inline" fill="#FFFFFF" font-family="'Interstate-Bold'" font-size="12.16">N</text>
	
		<text transform="matrix(1 0 0 1 168.6934 10.3359)" display="inline" fill="#FFFFFF" font-family="'Interstate-Bold'" font-size="12.16">T</text>
	
		<text transform="matrix(1 0 0 1 176.3789 10.3359)" display="inline" fill="#FFFFFF" font-family="'Interstate-Bold'" font-size="12.16"> </text>
	
		<text transform="matrix(1 0 0 1 179.9062 10.3359)" display="inline" fill="#FFFFFF" font-family="'Interstate-Bold'" font-size="12.16">E</text>
	
		<text transform="matrix(1 0 0 1 187.8086 10.3359)" display="inline" fill="#FFFFFF" font-family="'Interstate-Bold'" font-size="12.16">N</text>
	
		<text transform="matrix(1 0 0 1 196.8926 10.3359)" display="inline" fill="#FFFFFF" font-family="'Interstate-Bold'" font-size="12.16">G</text>
	
		<text transform="matrix(1 0 0 1 205.3809 10.3359)" display="inline" fill="#FFFFFF" font-family="'Interstate-Bold'" font-size="12.16">I</text>
	
		<text transform="matrix(1 0 0 1 209.5156 10.3359)" display="inline" fill="#FFFFFF" font-family="'Interstate-Bold'" font-size="12.16">N</text>
	
		<text transform="matrix(1 0 0 1 218.5977 10.3359)" display="inline" fill="#FFFFFF" font-family="'Interstate-Bold'" font-size="12.16">E</text>
</g>
<g display="none">
	<text transform="matrix(1 0 0 1 0 10.3359)" display="inline" fill="#FFFFFF" font-family="'Interstate-Bold'" font-size="12.16">O</text>
	
		<text transform="matrix(1 0 0 1 8.7432 10.3359)" display="inline" fill="#FFFFFF" font-family="'Interstate-Bold'" font-size="12.16">P</text>
	
		<text transform="matrix(1 0 0 1 17.0117 10.3359)" display="inline" fill="#FFFFFF" font-family="'Interstate-Bold'" font-size="12.16">E</text>
	
		<text transform="matrix(1 0 0 1 24.9155 10.3359)" display="inline" fill="#FFFFFF" font-family="'Interstate-Bold'" font-size="12.16">N</text>
	
		<text transform="matrix(1 0 0 1 33.999 10.3359)" display="inline" fill="#FFFFFF" font-family="'Interstate-Bold'" font-size="12.16">S</text>
	
		<text transform="matrix(1 0 0 1 41.7207 10.3359)" display="inline" fill="#FFFFFF" font-family="'Interstate-Bold'" font-size="12.16">T</text>
	
		<text transform="matrix(1 0 0 1 48.2505 10.3359)" display="inline" fill="#FFFFFF" font-family="'Interstate-Bold'" font-size="12.16">A</text>
	
		<text transform="matrix(1 0 0 1 57.0664 10.3359)" display="inline" fill="#FFFFFF" font-family="'Interstate-Bold'" font-size="12.16">C</text>
	
		<text transform="matrix(1 0 0 1 65.2139 10.3359)" display="inline" fill="#FFFFFF" font-family="'Interstate-Bold'" font-size="12.16">K</text>
	
		<text transform="matrix(1 0 0 1 73.9688 10.3359)" display="inline" fill="#FFFFFF" font-family="'Interstate-Bold'" font-size="12.16"> </text>
	
		<text transform="matrix(1 0 0 1 77.4951 10.3359)" display="inline" fill="#FFFFFF" font-family="'Interstate-Bold'" font-size="12.16">D</text>
	
		<text transform="matrix(1 0 0 1 85.6914 10.3359)" display="inline" fill="#FFFFFF" font-family="'Interstate-Bold'" font-size="12.16">A</text>
	
		<text transform="matrix(1 0 0 1 94.5068 10.3359)" display="inline" fill="#FFFFFF" font-family="'Interstate-Bold'" font-size="12.16">S</text>
	
		<text transform="matrix(1 0 0 1 102.5449 10.3359)" display="inline" fill="#FFFFFF" font-family="'Interstate-Bold'" font-size="12.16">H</text>
	
		<text transform="matrix(1 0 0 1 111.627 10.3359)" display="inline" fill="#FFFFFF" font-family="'Interstate-Bold'" font-size="12.16">B</text>
	
		<text transform="matrix(1 0 0 1 120.1758 10.3359)" display="inline" fill="#FFFFFF" font-family="'Interstate-Bold'" font-size="12.16">O</text>
	
		<text transform="matrix(1 0 0 1 128.6152 10.3359)" display="inline" fill="#FFFFFF" font-family="'Interstate-Bold'" font-size="12.16">A</text>
	
		<text transform="matrix(1 0 0 1 137.7363 10.3359)" display="inline" fill="#FFFFFF" font-family="'Interstate-Bold'" font-size="12.16">R</text>
	
		<text transform="matrix(1 0 0 1 146.418 10.3359)" display="inline" fill="#FFFFFF" font-family="'Interstate-Bold'" font-size="12.16">D</text>
</g>
<g>
	<g>
		<path fill="#FFFFFF" d="M4.653,9.781L3.263,6.91H2.312v2.871H0V1.266h3.808c0.494,0,0.947,0.051,1.356,0.152
			C5.574,1.52,5.925,1.68,6.217,1.897c0.292,0.22,0.518,0.505,0.676,0.857c0.157,0.354,0.236,0.78,0.236,1.285
			c0,0.641-0.138,1.163-0.414,1.568C6.438,6.014,6.064,6.32,5.592,6.531l1.707,3.25H4.653z M4.543,3.442
			c-0.159-0.17-0.428-0.256-0.801-0.256h-1.43v1.862h1.394c0.392,0,0.668-0.08,0.831-0.243C4.7,4.645,4.782,4.408,4.782,4.101
			C4.782,3.833,4.702,3.613,4.543,3.442z"/>
		<path fill="#FFFFFF" d="M8.71,9.781V1.266h6.521v1.983h-4.184v1.144h2.518V6.34h-2.518v1.459h4.269v1.982H8.71z"/>
		<path fill="#FFFFFF" d="M23.891,7.5c-0.193,0.549-0.484,0.988-0.874,1.326c-0.391,0.338-0.87,0.578-1.443,0.73
			c-0.57,0.146-1.234,0.225-1.988,0.225h-2.761V1.266h2.979c0.665,0,1.271,0.068,1.812,0.207c0.542,0.138,1.004,0.371,1.381,0.699
			s0.669,0.76,0.876,1.295c0.206,0.536,0.31,1.205,0.31,2.008C24.184,6.275,24.086,6.951,23.891,7.5z M21.66,4.503
			c-0.07-0.285-0.182-0.516-0.334-0.694c-0.155-0.179-0.358-0.31-0.608-0.396c-0.252-0.085-0.56-0.128-0.924-0.128h-0.586v4.479
			h0.512c0.365,0,0.678-0.039,0.937-0.115c0.259-0.075,0.472-0.203,0.638-0.377c0.167-0.174,0.286-0.403,0.359-0.692
			c0.073-0.287,0.109-0.644,0.109-1.063C21.763,5.122,21.729,4.785,21.66,4.503z"/>
		<path fill="#FFFFFF" d="M34.681,9.781V6.424H32.03v3.357h-2.409V1.266h2.409v3.103h2.651V1.266h2.409v8.516L34.681,9.781
			L34.681,9.781z"/>
		<path fill="#FFFFFF" d="M44.316,9.781l-0.462-1.498H41.3l-0.463,1.498h-2.53l3.09-8.516h2.385l3.089,8.516H44.316z M43.125,5.852
			c-0.073-0.275-0.139-0.515-0.195-0.719c-0.057-0.201-0.107-0.385-0.152-0.547c-0.045-0.162-0.083-0.311-0.115-0.443
			c-0.032-0.132-0.061-0.274-0.086-0.42c-0.023,0.146-0.052,0.288-0.085,0.425c-0.032,0.138-0.07,0.289-0.114,0.451
			c-0.045,0.161-0.096,0.344-0.153,0.547c-0.056,0.203-0.121,0.437-0.194,0.704L41.873,6.41h1.41L43.125,5.852z"/>
		<path fill="#FFFFFF" d="M51.324,3.322v6.459h-2.36V3.322h-2.385V1.266h7.129v2.057L51.324,3.322L51.324,3.322z"/>
		<path fill="#FFFFFF" d="M59.002,2.229c-0.081,0.194-0.192,0.363-0.337,0.506c-0.144,0.145-0.311,0.255-0.506,0.337
			c-0.195,0.081-0.405,0.122-0.632,0.122s-0.438-0.041-0.633-0.122c-0.195-0.081-0.364-0.191-0.507-0.337
			c-0.143-0.144-0.255-0.312-0.335-0.506c-0.082-0.194-0.123-0.405-0.123-0.632c0-0.228,0.041-0.439,0.123-0.633
			c0.079-0.194,0.191-0.363,0.335-0.506c0.144-0.144,0.312-0.256,0.507-0.336C57.089,0.041,57.3,0,57.527,0s0.438,0.041,0.632,0.123
			c0.194,0.079,0.363,0.191,0.506,0.336c0.144,0.143,0.255,0.312,0.337,0.506c0.081,0.192,0.122,0.405,0.122,0.633
			S59.083,2.035,59.002,2.229z M58.7,1.073c-0.065-0.158-0.153-0.293-0.265-0.404c-0.112-0.112-0.247-0.199-0.403-0.263
			c-0.156-0.062-0.323-0.093-0.504-0.093c-0.184,0-0.352,0.031-0.507,0.093c-0.156,0.062-0.289,0.148-0.4,0.263
			c-0.112,0.111-0.2,0.246-0.266,0.404c-0.064,0.157-0.097,0.331-0.097,0.524c0,0.191,0.032,0.366,0.097,0.522
			c0.065,0.159,0.153,0.294,0.266,0.405c0.111,0.111,0.245,0.199,0.4,0.262c0.155,0.062,0.323,0.094,0.507,0.094
			c0.181,0,0.348-0.031,0.504-0.094c0.157-0.062,0.291-0.148,0.403-0.262c0.111-0.111,0.199-0.246,0.265-0.405
			c0.064-0.156,0.097-0.331,0.097-0.522C58.796,1.404,58.764,1.23,58.7,1.073z M57.81,2.426l-0.282-0.584h-0.194v0.584H56.86V0.689
			h0.778c0.203,0,0.366,0.044,0.49,0.129c0.125,0.086,0.187,0.232,0.187,0.438c0,0.133-0.029,0.238-0.087,0.32
			c-0.057,0.081-0.132,0.145-0.227,0.188l0.344,0.659L57.81,2.426L57.81,2.426z M57.788,1.135c-0.033-0.034-0.088-0.051-0.164-0.051
			h-0.291V1.46h0.283c0.079,0,0.136-0.017,0.169-0.049c0.035-0.032,0.051-0.079,0.051-0.143C57.836,1.215,57.821,1.171,57.788,1.135
			z"/>
	</g>
</g>
<g>
	<path fill="#FFFFFF" d="M63.678,9.641V1.117h5.918v1.668h-4.213v1.474h2.447v1.656h-2.447v2.058h4.396v1.668H63.678z"/>
	<path fill="#FFFFFF" d="M76.979,9.641L73.85,4.989c-0.207-0.316-0.487-0.743-0.597-0.962c0,0.316,0.024,1.388,0.024,1.863v3.75
		h-1.681V1.117h1.632l3.02,4.505c0.207,0.316,0.487,0.743,0.597,0.962c0-0.316-0.024-1.388-0.024-1.863V1.117h1.68v8.523H76.979z"/>
	<path fill="#FFFFFF" d="M84.302,2.797v6.843h-1.705V2.797H80.15v-1.68h6.6v1.68H84.302z"/>
	<path fill="#FFFFFF" d="M88.397,9.641V1.117h5.918v1.668h-4.213v1.474h2.447v1.656h-2.447v2.058h4.396v1.668H88.397z"/>
	<path fill="#FFFFFF" d="M101.26,9.641l-1.522-3.068h-1.717v3.068h-1.705V1.117h3.97c1.607,0,2.935,0.889,2.935,2.703
		c0,1.278-0.548,2.082-1.632,2.509l1.632,3.312H101.26z M100.25,2.773h-2.228v2.192h2.228c0.792,0,1.218-0.365,1.218-1.108
		C101.467,3.09,101.004,2.773,100.25,2.773z"/>
	<path fill="#FFFFFF" d="M108.595,6.621h-1.875v3.02h-1.705V1.117h3.726c1.607,0,2.935,0.889,2.935,2.703
		C111.676,5.793,110.359,6.621,108.595,6.621z M108.68,2.773h-1.96v2.192h1.984c0.792,0,1.218-0.365,1.218-1.108
		S109.435,2.773,108.68,2.773z"/>
	<path fill="#FFFFFF" d="M118.244,9.641l-1.523-3.068h-1.717v3.068h-1.705V1.117h3.971c1.607,0,2.934,0.889,2.934,2.703
		c0,1.278-0.547,2.082-1.631,2.509l1.631,3.312H118.244z M117.232,2.773h-2.229v2.192h2.229c0.791,0,1.217-0.365,1.217-1.108
		C118.449,3.09,117.988,2.773,117.232,2.773z"/>
	<path fill="#FFFFFF" d="M122.119,9.641V1.117h1.705v8.523H122.119z"/>
	<path fill="#FFFFFF" d="M129.039,9.774c-1.426,0-2.668-0.597-3.312-1.546l1.23-1.097c0.596,0.694,1.363,0.975,2.18,0.975
		c1.01,0,1.484-0.28,1.484-0.926c0-0.548-0.293-0.791-1.898-1.156c-1.572-0.365-2.668-0.865-2.668-2.545
		c0-1.546,1.363-2.497,3.045-2.497c1.326,0,2.301,0.5,3.105,1.34l-1.23,1.193c-0.549-0.56-1.156-0.876-1.936-0.876
		c-0.914,0-1.219,0.39-1.219,0.767c0,0.536,0.365,0.706,1.717,1.023c1.352,0.316,2.85,0.779,2.85,2.63
		C132.387,8.679,131.363,9.774,129.039,9.774z"/>
	<path fill="#FFFFFF" d="M134.193,9.641V1.117h5.918v1.668h-4.213v1.474h2.447v1.656h-2.447v2.058h4.395v1.668H134.193z"/>
	<path fill="#FFFFFF" d="M145.645,9.641V1.117h1.705V7.96h4.273v1.681H145.645z"/>
	<path fill="#FFFFFF" d="M153.32,9.641V1.117h1.705v8.523H153.32z"/>
	<path fill="#FFFFFF" d="M162.723,9.641l-3.129-4.651c-0.207-0.316-0.488-0.743-0.598-0.962c0,0.316,0.025,1.388,0.025,1.863v3.75
		h-1.682V1.117h1.633l3.02,4.505c0.207,0.316,0.486,0.743,0.596,0.962c0-0.316-0.023-1.388-0.023-1.863V1.117h1.68v8.523H162.723z"
		/>
	<path fill="#FFFFFF" d="M169.826,9.774c-2.059,0-3.445-1.388-3.445-3.872V1.117h1.703v4.761c0,1.364,0.658,2.229,1.742,2.229
		s1.754-0.84,1.754-2.204V1.117h1.705v4.761C173.285,8.35,171.994,9.774,169.826,9.774z"/>
	<path fill="#FFFFFF" d="M180.109,9.641l-0.768-1.291c-0.305-0.511-0.766-1.352-0.924-1.668c-0.146,0.316-0.609,1.133-0.926,1.668
		l-0.768,1.291h-2.033l2.703-4.359l-2.582-4.164h2.033l0.646,1.096c0.305,0.512,0.766,1.352,0.926,1.668
		c0.158-0.317,0.607-1.133,0.924-1.668l0.646-1.096h2.033l-2.594,4.164l2.715,4.359H180.109z"/>
	<path fill="#FFFFFF" d="M190.574,9.774c-2.324,0-3.701-1.802-3.701-4.396s1.377-4.396,3.701-4.396c2.326,0,3.703,1.802,3.703,4.396
		S192.9,9.774,190.574,9.774z M190.574,2.676c-1.375,0-1.947,1.181-1.947,2.703c0,1.522,0.572,2.703,1.947,2.703
		c1.377,0,1.949-1.181,1.949-2.703C192.523,3.857,191.951,2.676,190.574,2.676z"/>
	<path fill="#FFFFFF" d="M199.604,6.621h-1.875v3.02h-1.705V1.117h3.727c1.607,0,2.934,0.889,2.934,2.703
		C202.684,5.793,201.369,6.621,199.604,6.621z M199.688,2.773h-1.959v2.192h1.984c0.791,0,1.217-0.365,1.217-1.108
		S200.443,2.773,199.688,2.773z"/>
	<path fill="#FFFFFF" d="M204.307,9.641V1.117h5.918v1.668h-4.213v1.474h2.447v1.656h-2.447v2.058h4.396v1.668H204.307z"/>
	<path fill="#FFFFFF" d="M217.607,9.641l-3.129-4.651c-0.207-0.316-0.486-0.743-0.596-0.962c0,0.316,0.023,1.388,0.023,1.863v3.75
		h-1.68V1.117h1.631l3.02,4.505c0.207,0.316,0.488,0.743,0.598,0.962c0-0.316-0.025-1.388-0.025-1.863V1.117h1.682v8.523H217.607z"
		/>
	<path fill="#FFFFFF" d="M224.225,9.774c-1.424,0-2.666-0.597-3.312-1.546l1.23-1.097c0.598,0.694,1.363,0.975,2.18,0.975
		c1.01,0,1.486-0.28,1.486-0.926c0-0.548-0.293-0.791-1.9-1.156c-1.57-0.365-2.666-0.865-2.666-2.545
		c0-1.546,1.363-2.497,3.043-2.497c1.328,0,2.303,0.5,3.105,1.34l-1.23,1.193c-0.547-0.56-1.156-0.876-1.936-0.876
		c-0.912,0-1.217,0.39-1.217,0.767c0,0.536,0.365,0.706,1.717,1.023c1.352,0.316,2.85,0.779,2.85,2.63
		C227.574,8.679,226.551,9.774,224.225,9.774z"/>
	<path fill="#FFFFFF" d="M232.668,2.797v6.843h-1.705V2.797h-2.447v-1.68h6.6v1.68H232.668z"/>
	<path fill="#FFFFFF" d="M241.281,9.641l-0.67-1.899h-3.117l-0.67,1.899h-1.826l3.264-8.523h1.656l3.238,8.523H241.281z
		 M239.479,4.575c-0.17-0.499-0.34-1.011-0.426-1.327c-0.084,0.316-0.256,0.828-0.426,1.327l-0.549,1.547h1.949L239.479,4.575z"/>
	<path fill="#FFFFFF" d="M249.312,3.601c-0.305-0.584-0.793-0.925-1.559-0.925c-1.279,0-2.01,1.12-2.01,2.703
		c0,1.534,0.742,2.703,2.021,2.703c0.768,0,1.217-0.329,1.668-1.084l1.438,0.853c-0.586,1.205-1.607,1.924-3.154,1.924
		c-2.229,0-3.727-1.704-3.727-4.396c0-2.594,1.559-4.396,3.787-4.396c1.607,0,2.582,0.779,3.117,1.888L249.312,3.601z"/>
	<path fill="#FFFFFF" d="M257.984,9.641l-2.312-4.115l-1.363,1.606v2.509h-1.705V1.117h1.705V3.54c0,0.317-0.014,1.084-0.025,1.352
		c0.123-0.195,0.439-0.584,0.67-0.864l2.387-2.91h2.059l-2.496,2.947l3.129,5.577H257.984z"/>
	<path fill="#FFFFFF" d="M268.488,6.621h-1.875v3.02h-1.705V1.117h3.727c1.607,0,2.934,0.889,2.934,2.703
		C271.568,5.793,270.254,6.621,268.488,6.621z M268.572,2.773h-1.959v2.192h1.984c0.791,0,1.217-0.365,1.217-1.108
		S269.328,2.773,268.572,2.773z"/>
	<path fill="#FFFFFF" d="M273.193,9.641V1.117h1.705V7.96h4.273v1.681H273.193z"/>
	<path fill="#FFFFFF" d="M286.42,9.641l-0.67-1.899h-3.117l-0.67,1.899h-1.826l3.264-8.523h1.656l3.238,8.523H286.42z
		 M284.617,4.575c-0.17-0.499-0.34-1.011-0.426-1.327c-0.084,0.316-0.256,0.828-0.426,1.327l-0.549,1.547h1.949L284.617,4.575z"/>
	<path fill="#FFFFFF" d="M292.33,2.797v6.843h-1.705V2.797h-2.447v-1.68h6.6v1.68H292.33z"/>
	<path fill="#FFFFFF" d="M298.131,2.785v1.607h2.568v1.656h-2.568v3.592h-1.705V1.117h6.1v1.668H298.131z"/>
	<path fill="#FFFFFF" d="M306.877,9.774c-2.324,0-3.701-1.802-3.701-4.396s1.377-4.396,3.701-4.396c2.326,0,3.703,1.802,3.703,4.396
		S309.203,9.774,306.877,9.774z M306.877,2.676c-1.375,0-1.947,1.181-1.947,2.703c0,1.522,0.572,2.703,1.947,2.703
		c1.377,0,1.949-1.181,1.949-2.703C308.826,3.857,308.254,2.676,306.877,2.676z"/>
	<path fill="#FFFFFF" d="M317.27,9.641l-1.521-3.068h-1.717v3.068h-1.705V1.117h3.969c1.607,0,2.936,0.889,2.936,2.703
		c0,1.278-0.549,2.082-1.633,2.509l1.633,3.312H317.27z M316.26,2.773h-2.229v2.192h2.229c0.791,0,1.217-0.365,1.217-1.108
		C317.477,3.09,317.014,2.773,316.26,2.773z"/>
	<path fill="#FFFFFF" d="M327.295,9.641V6.512c0-0.463,0.025-1.547,0.025-1.875c-0.123,0.316-0.379,0.925-0.598,1.413l-1.729,3.786
		l-1.73-3.786c-0.219-0.487-0.475-1.096-0.596-1.413c0,0.329,0.023,1.413,0.023,1.875v3.129h-1.668V1.117h1.645l1.777,3.86
		c0.219,0.475,0.475,1.121,0.584,1.424c0.111-0.316,0.354-0.938,0.572-1.424l1.719-3.86H329v8.523H327.295z"/>
</g>
</svg>
