<?xml version="1.0" encoding="utf-8"?>
<!-- Generator: Adobe Illustrator 16.0.4, SVG Export Plug-In . SVG Version: 6.00 Build 0)  -->
<svg version="1.2" baseProfile="tiny" id="Layer_1" xmlns="http://www.w3.org/2000/svg" xmlns:xlink="http://www.w3.org/1999/xlink"
	 x="0px" y="0px" width="218px" height="10px" viewBox="0 0 218 10" overflow="scroll" xml:space="preserve">
<g display="none">
	<text transform="matrix(1 0 0 1 0 10.3359)" display="inline" fill="#FFFFFF" font-family="'Interstate-Bold'" font-size="12.16">C</text>
	
		<text transform="matrix(1 0 0 1 8.147 10.3359)" display="inline" fill="#FFFFFF" font-family="'Interstate-Bold'" font-size="12.16">L</text>
	
		<text transform="matrix(1 0 0 1 15.3579 10.3359)" display="inline" fill="#FFFFFF" font-family="'Interstate-Bold'" font-size="12.16">O</text>
	
		<text transform="matrix(1 0 0 1 24.1011 10.3359)" display="inline" fill="#FFFFFF" font-family="'Interstate-Bold'" font-size="12.16">U</text>
	
		<text transform="matrix(1 0 0 1 33.063 10.3359)" display="inline" fill="#FFFFFF" font-family="'Interstate-Bold'" font-size="12.16">D</text>
	
		<text transform="matrix(1 0 0 1 41.6597 10.3359)" display="inline" fill="#FFFFFF" font-family="'Interstate-Bold'" font-size="12.16">F</text>
	
		<text transform="matrix(1 0 0 1 48.8467 10.3359)" display="inline" fill="#FFFFFF" font-family="'Interstate-Bold'" font-size="12.16">O</text>
	
		<text transform="matrix(1 0 0 1 57.5898 10.3359)" display="inline" fill="#FFFFFF" font-family="'Interstate-Bold'" font-size="12.16">R</text>
	
		<text transform="matrix(1 0 0 1 66.2715 10.3359)" display="inline" fill="#FFFFFF" font-family="'Interstate-Bold'" font-size="12.16">M</text>
	
		<text transform="matrix(1 0 0 1 76.4248 10.3359)" display="inline" fill="#FFFFFF" font-family="'Interstate-Bold'" font-size="12.16">S</text>
	
		<text transform="matrix(1 0 0 1 84.4629 10.3359)" display="inline" fill="#FFFFFF" font-family="'Interstate-Bold'" font-size="12.16"> </text>
	
		<text transform="matrix(1 0 0 1 87.9893 10.3359)" display="inline" fill="#FFFFFF" font-family="'Interstate-Bold'" font-size="12.16">M</text>
	
		<text transform="matrix(1 0 0 1 98.1426 10.3359)" display="inline" fill="#FFFFFF" font-family="'Interstate-Bold'" font-size="12.16">A</text>
	
		<text transform="matrix(1 0 0 1 107.2627 10.3359)" display="inline" fill="#FFFFFF" font-family="'Interstate-Bold'" font-size="12.16">N</text>
	
		<text transform="matrix(1 0 0 1 116.3462 10.3359)" display="inline" fill="#FFFFFF" font-family="'Interstate-Bold'" font-size="12.16">A</text>
	
		<text transform="matrix(1 0 0 1 125.1626 10.3359)" display="inline" fill="#FFFFFF" font-family="'Interstate-Bold'" font-size="12.16">G</text>
	
		<text transform="matrix(1 0 0 1 133.6489 10.3359)" display="inline" fill="#FFFFFF" font-family="'Interstate-Bold'" font-size="12.16">E</text>
	
		<text transform="matrix(1 0 0 1 141.5532 10.3359)" display="inline" fill="#FFFFFF" font-family="'Interstate-Bold'" font-size="12.16">M</text>
	
		<text transform="matrix(1 0 0 1 151.7075 10.3359)" display="inline" fill="#FFFFFF" font-family="'Interstate-Bold'" font-size="12.16">E</text>
	
		<text transform="matrix(1 0 0 1 159.6118 10.3359)" display="inline" fill="#FFFFFF" font-family="'Interstate-Bold'" font-size="12.16">N</text>
	
		<text transform="matrix(1 0 0 1 168.6938 10.3359)" display="inline" fill="#FFFFFF" font-family="'Interstate-Bold'" font-size="12.16">T</text>
	
		<text transform="matrix(1 0 0 1 176.3794 10.3359)" display="inline" fill="#FFFFFF" font-family="'Interstate-Bold'" font-size="12.16"> </text>
	
		<text transform="matrix(1 0 0 1 179.9067 10.3359)" display="inline" fill="#FFFFFF" font-family="'Interstate-Bold'" font-size="12.16">E</text>
	
		<text transform="matrix(1 0 0 1 187.8091 10.3359)" display="inline" fill="#FFFFFF" font-family="'Interstate-Bold'" font-size="12.16">N</text>
	
		<text transform="matrix(1 0 0 1 196.8931 10.3359)" display="inline" fill="#FFFFFF" font-family="'Interstate-Bold'" font-size="12.16">G</text>
	
		<text transform="matrix(1 0 0 1 205.3813 10.3359)" display="inline" fill="#FFFFFF" font-family="'Interstate-Bold'" font-size="12.16">I</text>
	
		<text transform="matrix(1 0 0 1 209.5161 10.3359)" display="inline" fill="#FFFFFF" font-family="'Interstate-Bold'" font-size="12.16">N</text>
	
		<text transform="matrix(1 0 0 1 218.5981 10.3359)" display="inline" fill="#FFFFFF" font-family="'Interstate-Bold'" font-size="12.16">E</text>
</g>
<g display="none">
	<text transform="matrix(1 0 0 1 0 10.3359)" display="inline" fill="#FFFFFF" font-family="'Interstate-Bold'" font-size="12.16">O</text>
	
		<text transform="matrix(1 0 0 1 8.7432 10.3359)" display="inline" fill="#FFFFFF" font-family="'Interstate-Bold'" font-size="12.16">P</text>
	
		<text transform="matrix(1 0 0 1 17.0117 10.3359)" display="inline" fill="#FFFFFF" font-family="'Interstate-Bold'" font-size="12.16">E</text>
	
		<text transform="matrix(1 0 0 1 24.9155 10.3359)" display="inline" fill="#FFFFFF" font-family="'Interstate-Bold'" font-size="12.16">N</text>
	
		<text transform="matrix(1 0 0 1 33.999 10.3359)" display="inline" fill="#FFFFFF" font-family="'Interstate-Bold'" font-size="12.16">S</text>
	
		<text transform="matrix(1 0 0 1 41.7207 10.3359)" display="inline" fill="#FFFFFF" font-family="'Interstate-Bold'" font-size="12.16">T</text>
	
		<text transform="matrix(1 0 0 1 48.2505 10.3359)" display="inline" fill="#FFFFFF" font-family="'Interstate-Bold'" font-size="12.16">A</text>
	
		<text transform="matrix(1 0 0 1 57.0664 10.3359)" display="inline" fill="#FFFFFF" font-family="'Interstate-Bold'" font-size="12.16">C</text>
	
		<text transform="matrix(1 0 0 1 65.2139 10.3359)" display="inline" fill="#FFFFFF" font-family="'Interstate-Bold'" font-size="12.16">K</text>
	
		<text transform="matrix(1 0 0 1 73.9688 10.3359)" display="inline" fill="#FFFFFF" font-family="'Interstate-Bold'" font-size="12.16"> </text>
	
		<text transform="matrix(1 0 0 1 77.4951 10.3359)" display="inline" fill="#FFFFFF" font-family="'Interstate-Bold'" font-size="12.16">D</text>
	
		<text transform="matrix(1 0 0 1 85.6914 10.3359)" display="inline" fill="#FFFFFF" font-family="'Interstate-Bold'" font-size="12.16">A</text>
	
		<text transform="matrix(1 0 0 1 94.5068 10.3359)" display="inline" fill="#FFFFFF" font-family="'Interstate-Bold'" font-size="12.16">S</text>
	
		<text transform="matrix(1 0 0 1 102.5449 10.3359)" display="inline" fill="#FFFFFF" font-family="'Interstate-Bold'" font-size="12.16">H</text>
	
		<text transform="matrix(1 0 0 1 111.6274 10.3359)" display="inline" fill="#FFFFFF" font-family="'Interstate-Bold'" font-size="12.16">B</text>
	
		<text transform="matrix(1 0 0 1 120.1763 10.3359)" display="inline" fill="#FFFFFF" font-family="'Interstate-Bold'" font-size="12.16">O</text>
	
		<text transform="matrix(1 0 0 1 128.6157 10.3359)" display="inline" fill="#FFFFFF" font-family="'Interstate-Bold'" font-size="12.16">A</text>
	
		<text transform="matrix(1 0 0 1 137.7368 10.3359)" display="inline" fill="#FFFFFF" font-family="'Interstate-Bold'" font-size="12.16">R</text>
	
		<text transform="matrix(1 0 0 1 146.4185 10.3359)" display="inline" fill="#FFFFFF" font-family="'Interstate-Bold'" font-size="12.16">D</text>
</g>
<g>
	<g>
		<path fill="#FFFFFF" d="M4.653,9.781L3.263,6.91H2.312v2.871H0V1.266h3.808c0.494,0,0.947,0.051,1.356,0.152
			C5.574,1.52,5.925,1.68,6.217,1.897c0.292,0.22,0.518,0.505,0.676,0.857c0.157,0.354,0.236,0.78,0.236,1.285
			c0,0.641-0.138,1.163-0.414,1.568C6.438,6.014,6.064,6.32,5.592,6.531l1.707,3.25H4.653z M4.543,3.442
			c-0.159-0.17-0.428-0.256-0.801-0.256h-1.43v1.862h1.394c0.392,0,0.668-0.08,0.831-0.243C4.7,4.645,4.782,4.408,4.782,4.101
			C4.782,3.833,4.702,3.613,4.543,3.442z"/>
		<path fill="#FFFFFF" d="M8.71,9.781V1.266h6.521v1.983h-4.184v1.144h2.518V6.34h-2.518v1.459h4.269v1.982H8.71z"/>
		<path fill="#FFFFFF" d="M23.891,7.5c-0.193,0.549-0.484,0.988-0.874,1.326c-0.391,0.338-0.87,0.578-1.443,0.73
			c-0.57,0.147-1.234,0.225-1.988,0.225h-2.761V1.266h2.979c0.665,0,1.271,0.068,1.812,0.207c0.542,0.138,1.004,0.371,1.381,0.699
			s0.669,0.76,0.876,1.295c0.206,0.536,0.31,1.205,0.31,2.008C24.184,6.275,24.086,6.951,23.891,7.5z M21.66,4.503
			c-0.07-0.285-0.182-0.516-0.334-0.694c-0.155-0.179-0.358-0.31-0.608-0.396c-0.252-0.085-0.56-0.128-0.924-0.128h-0.586v4.479
			h0.512c0.365,0,0.678-0.039,0.937-0.115c0.259-0.076,0.472-0.203,0.638-0.377c0.167-0.174,0.286-0.404,0.359-0.693
			c0.073-0.287,0.109-0.643,0.109-1.064C21.763,5.122,21.729,4.785,21.66,4.503z"/>
		<path fill="#FFFFFF" d="M34.681,9.781V6.424H32.03v3.357h-2.409V1.266h2.409v3.103h2.651V1.266h2.409v8.516L34.681,9.781
			L34.681,9.781z"/>
		<path fill="#FFFFFF" d="M44.316,9.781l-0.462-1.498H41.3l-0.463,1.498h-2.53l3.09-8.516h2.385l3.089,8.516H44.316z M43.125,5.852
			c-0.073-0.276-0.139-0.515-0.195-0.719c-0.057-0.201-0.107-0.385-0.152-0.547c-0.045-0.162-0.083-0.311-0.115-0.443
			c-0.032-0.132-0.061-0.274-0.086-0.42c-0.023,0.146-0.052,0.288-0.085,0.425c-0.032,0.138-0.07,0.289-0.114,0.451
			c-0.045,0.161-0.096,0.344-0.153,0.547c-0.056,0.203-0.121,0.437-0.194,0.704L41.873,6.41h1.41L43.125,5.852z"/>
		<path fill="#FFFFFF" d="M51.324,3.322v6.459h-2.36V3.322h-2.385V1.266h7.129v2.057L51.324,3.322L51.324,3.322z"/>
		<path fill="#FFFFFF" d="M59.002,2.229c-0.081,0.194-0.192,0.363-0.337,0.506c-0.144,0.145-0.311,0.255-0.506,0.337
			c-0.195,0.081-0.405,0.122-0.632,0.122s-0.438-0.041-0.633-0.122c-0.195-0.081-0.364-0.191-0.507-0.337
			c-0.143-0.144-0.255-0.312-0.335-0.506c-0.082-0.194-0.123-0.405-0.123-0.632c0-0.228,0.041-0.439,0.123-0.633
			c0.079-0.194,0.191-0.363,0.335-0.506c0.144-0.144,0.312-0.256,0.507-0.336C57.089,0.041,57.3,0,57.527,0s0.438,0.041,0.632,0.123
			c0.194,0.079,0.363,0.191,0.506,0.336c0.144,0.143,0.255,0.312,0.337,0.506c0.081,0.192,0.122,0.405,0.122,0.633
			S59.083,2.035,59.002,2.229z M58.7,1.073c-0.065-0.158-0.153-0.293-0.265-0.404c-0.112-0.112-0.247-0.199-0.403-0.263
			c-0.156-0.062-0.323-0.093-0.504-0.093c-0.184,0-0.352,0.031-0.507,0.093c-0.156,0.062-0.289,0.148-0.4,0.263
			c-0.112,0.111-0.2,0.246-0.266,0.404c-0.064,0.157-0.097,0.331-0.097,0.524c0,0.191,0.032,0.366,0.097,0.522
			c0.065,0.159,0.153,0.294,0.266,0.405c0.111,0.111,0.245,0.199,0.4,0.262c0.155,0.062,0.323,0.094,0.507,0.094
			c0.181,0,0.348-0.031,0.504-0.094c0.157-0.062,0.291-0.148,0.403-0.262c0.111-0.111,0.199-0.246,0.265-0.405
			c0.064-0.156,0.097-0.331,0.097-0.522C58.796,1.404,58.764,1.23,58.7,1.073z M57.81,2.426l-0.282-0.584h-0.194v0.584H56.86V0.689
			h0.778c0.203,0,0.366,0.044,0.49,0.129c0.125,0.086,0.187,0.232,0.187,0.438c0,0.133-0.029,0.238-0.087,0.32
			c-0.057,0.081-0.132,0.145-0.227,0.188l0.344,0.659L57.81,2.426L57.81,2.426z M57.788,1.135c-0.033-0.034-0.088-0.051-0.164-0.051
			h-0.291V1.46h0.283c0.079,0,0.136-0.017,0.169-0.049c0.035-0.032,0.051-0.079,0.051-0.143C57.836,1.215,57.821,1.171,57.788,1.135
			z"/>
	</g>
	<g>
		<path fill="#FFFFFF" d="M71.291,7.221c-0.182,0.543-0.439,1.004-0.772,1.381s-0.729,0.666-1.192,0.869
			c-0.462,0.202-0.969,0.305-1.52,0.305c-0.559,0-1.068-0.101-1.526-0.299c-0.458-0.197-0.851-0.485-1.18-0.862
			c-0.328-0.378-0.583-0.835-0.766-1.374c-0.182-0.539-0.273-1.153-0.273-1.843c0-0.688,0.091-1.305,0.273-1.848
			c0.183-0.543,0.44-1.003,0.772-1.38s0.729-0.667,1.191-0.87c0.462-0.202,0.973-0.304,1.532-0.304c0.551,0,1.056,0.1,1.514,0.298
			c0.458,0.199,0.851,0.486,1.179,0.863c0.329,0.377,0.584,0.835,0.766,1.374c0.183,0.539,0.274,1.153,0.274,1.843
			C71.564,6.062,71.473,6.678,71.291,7.221z M69.254,3.391c-0.373-0.47-0.859-0.705-1.459-0.705s-1.081,0.23-1.441,0.693
			c-0.361,0.462-0.541,1.126-0.541,1.994c0,0.867,0.187,1.536,0.56,2.006c0.373,0.471,0.859,0.705,1.459,0.705
			s1.08-0.23,1.441-0.693c0.361-0.461,0.542-1.125,0.542-1.994C69.813,4.529,69.626,3.861,69.254,3.391z"/>
		<path fill="#FFFFFF" d="M79.699,5.099c-0.154,0.353-0.37,0.643-0.646,0.87c-0.276,0.227-0.604,0.393-0.981,0.498
			c-0.377,0.105-0.786,0.158-1.225,0.158H74.97v3.016h-1.69V1.129H77c0.397,0,0.774,0.055,1.131,0.164
			c0.356,0.109,0.669,0.278,0.936,0.505c0.268,0.227,0.479,0.509,0.632,0.845c0.154,0.337,0.231,0.731,0.231,1.186
			C79.931,4.323,79.853,4.746,79.699,5.099z M77.844,3.054c-0.224-0.173-0.527-0.259-0.909-0.259H74.97v2.164h1.99
			c0.813,0,1.221-0.364,1.221-1.094C78.18,3.496,78.067,3.226,77.844,3.054z"/>
		<path fill="#FFFFFF" d="M81.547,9.641V1.129h5.898v1.666h-4.208v1.459h2.444V5.92h-2.444v2.055h4.39v1.666H81.547z"/>
		<path fill="#FFFFFF" d="M94.838,9.641l-3.125-4.645c-0.105-0.162-0.217-0.335-0.334-0.518c-0.118-0.182-0.205-0.33-0.262-0.443
			c0,0.081,0.002,0.2,0.006,0.358c0.004,0.158,0.006,0.331,0.006,0.517c0,0.179,0.002,0.357,0.006,0.535
			c0.004,0.179,0.006,0.329,0.006,0.45v3.746h-1.69V1.129h1.642l3.006,4.499c0.105,0.162,0.216,0.334,0.333,0.517
			c0.117,0.184,0.204,0.33,0.261,0.444c0-0.081-0.002-0.2-0.006-0.358s-0.006-0.326-0.006-0.504c0-0.188-0.002-0.37-0.006-0.549
			C94.67,5,94.668,4.85,94.668,4.729v-3.6h1.69v8.512H94.838z"/>
		<path fill="#FFFFFF" d="M104.578,8.172c-0.129,0.332-0.332,0.617-0.608,0.855c-0.275,0.238-0.622,0.423-1.04,0.553
			s-0.918,0.193-1.502,0.193c-0.713,0-1.362-0.138-1.945-0.412c-0.584-0.276-1.038-0.653-1.362-1.131l1.228-1.096
			c0.3,0.35,0.634,0.598,1.003,0.748c0.369,0.149,0.76,0.225,1.174,0.225c0.511,0,0.885-0.072,1.125-0.219
			c0.24-0.146,0.359-0.381,0.359-0.705c0-0.138-0.024-0.258-0.073-0.358c-0.048-0.101-0.14-0.196-0.273-0.285
			c-0.133-0.089-0.326-0.175-0.578-0.256s-0.576-0.166-0.973-0.255c-0.389-0.09-0.748-0.194-1.076-0.316
			c-0.328-0.121-0.61-0.275-0.845-0.462s-0.417-0.421-0.547-0.705c-0.129-0.284-0.194-0.637-0.194-1.058
			c0-0.39,0.079-0.738,0.237-1.046c0.158-0.309,0.375-0.569,0.65-0.784c0.275-0.215,0.598-0.379,0.967-0.493
			c0.369-0.113,0.764-0.17,1.186-0.17c0.665,0,1.247,0.118,1.745,0.355c0.499,0.236,0.95,0.567,1.355,0.992l-1.228,1.193
			c-0.276-0.283-0.569-0.5-0.881-0.65c-0.312-0.149-0.663-0.225-1.052-0.225c-0.227,0-0.417,0.022-0.571,0.066
			c-0.154,0.045-0.28,0.104-0.377,0.177c-0.097,0.072-0.167,0.153-0.207,0.242c-0.041,0.089-0.061,0.183-0.061,0.279
			c0,0.138,0.026,0.253,0.079,0.346c0.053,0.094,0.144,0.177,0.273,0.249c0.13,0.073,0.304,0.142,0.523,0.206
			c0.219,0.065,0.499,0.138,0.839,0.219c0.341,0.081,0.679,0.177,1.016,0.285c0.336,0.109,0.64,0.262,0.912,0.455
			c0.271,0.194,0.492,0.441,0.663,0.741c0.17,0.3,0.255,0.681,0.255,1.142C104.773,7.473,104.708,7.841,104.578,8.172z"/>
		<path fill="#FFFFFF" d="M109.844,2.795v6.846h-1.69V2.795h-2.444V1.129h6.58v1.666H109.844z"/>
		<path fill="#FFFFFF" d="M118.454,9.641l-0.668-1.896h-3.113l-0.668,1.896h-1.824l3.259-8.512h1.653l3.234,8.512H118.454z
			 M116.653,4.582c-0.089-0.251-0.172-0.494-0.25-0.729c-0.076-0.234-0.136-0.434-0.176-0.596c-0.041,0.162-0.1,0.361-0.176,0.596
			c-0.077,0.235-0.16,0.479-0.25,0.729l-0.547,1.544h1.945L116.653,4.582z"/>
		<path fill="#FFFFFF" d="M126.465,3.609c-0.152-0.292-0.354-0.519-0.602-0.681c-0.248-0.162-0.564-0.243-0.953-0.243
			c-0.316,0-0.602,0.066-0.853,0.2c-0.251,0.134-0.462,0.32-0.634,0.56c-0.17,0.239-0.299,0.522-0.389,0.852
			c-0.089,0.328-0.134,0.69-0.134,1.088c0,0.381,0.045,0.735,0.134,1.063c0.09,0.329,0.221,0.614,0.396,0.856
			c0.174,0.243,0.387,0.435,0.638,0.571c0.252,0.14,0.535,0.207,0.853,0.207c0.389,0,0.707-0.085,0.953-0.255
			c0.248-0.171,0.484-0.446,0.713-0.827l1.435,0.853c-0.292,0.606-0.694,1.08-1.21,1.416s-1.161,0.504-1.939,0.504
			c-0.56,0-1.064-0.104-1.52-0.311c-0.454-0.206-0.846-0.5-1.174-0.881s-0.582-0.841-0.76-1.381
			c-0.18-0.539-0.269-1.145-0.269-1.817c0-0.648,0.093-1.242,0.279-1.781s0.446-1.001,0.778-1.387
			c0.332-0.385,0.729-0.685,1.191-0.899c0.462-0.215,0.973-0.322,1.531-0.322c0.396,0,0.759,0.047,1.083,0.14
			c0.323,0.094,0.614,0.224,0.868,0.39c0.256,0.166,0.479,0.364,0.67,0.596c0.189,0.23,0.354,0.484,0.492,0.76L126.465,3.609z"/>
		<path fill="#FFFFFF" d="M135.112,9.641l-2.311-4.108l-1.362,1.604v2.505h-1.688V1.129h1.688v2.42c0,0.081,0,0.187,0,0.316
			c0,0.121-0.002,0.247-0.006,0.377c-0.004,0.13-0.009,0.255-0.013,0.377c-0.004,0.121-0.006,0.215-0.006,0.279
			c0.058-0.098,0.153-0.231,0.291-0.401c0.139-0.17,0.265-0.324,0.377-0.462l2.385-2.906h2.055l-2.492,2.942l3.125,5.57H135.112
			L135.112,9.641z"/>
		<path fill="#FFFFFF" d="M148.555,7.312c-0.247,0.539-0.575,0.98-0.985,1.326c-0.409,0.344-0.875,0.598-1.397,0.76
			s-1.057,0.242-1.6,0.242h-2.541V1.129h2.663c0.606,0,1.169,0.075,1.685,0.225c0.515,0.15,0.961,0.396,1.338,0.736
			c0.377,0.34,0.673,0.78,0.888,1.319s0.321,1.197,0.321,1.976C148.926,6.131,148.801,6.773,148.555,7.312z M146.577,3.442
			c-0.398-0.432-1.05-0.647-1.953-0.647h-0.902v5.18h0.843c0.447,0,0.836-0.062,1.165-0.188s0.6-0.301,0.812-0.526
			c0.211-0.225,0.369-0.497,0.476-0.817c0.106-0.317,0.159-0.67,0.159-1.059C147.174,4.521,146.976,3.874,146.577,3.442z"/>
		<path fill="#FFFFFF" d="M155.894,9.641l-0.669-1.896h-3.112l-0.669,1.896h-1.824l3.26-8.512h1.654l3.233,8.512H155.894z
			 M154.094,4.582c-0.09-0.251-0.172-0.494-0.249-0.729c-0.077-0.234-0.136-0.434-0.177-0.596c-0.041,0.162-0.1,0.361-0.176,0.596
			c-0.078,0.235-0.16,0.479-0.25,0.729l-0.548,1.544h1.946L154.094,4.582z"/>
		<path fill="#FFFFFF" d="M165.086,8.172c-0.131,0.332-0.332,0.617-0.607,0.855s-0.623,0.423-1.04,0.553
			c-0.418,0.13-0.918,0.193-1.502,0.193c-0.713,0-1.36-0.138-1.944-0.412c-0.584-0.276-1.039-0.653-1.363-1.131l1.229-1.096
			c0.3,0.35,0.634,0.598,1.003,0.748c0.369,0.149,0.76,0.225,1.174,0.225c0.512,0,0.887-0.072,1.125-0.219
			c0.238-0.146,0.358-0.381,0.358-0.705c0-0.138-0.024-0.258-0.073-0.358s-0.14-0.196-0.273-0.285
			c-0.133-0.089-0.325-0.175-0.576-0.256c-0.252-0.081-0.576-0.166-0.975-0.255c-0.389-0.09-0.746-0.194-1.076-0.316
			c-0.328-0.121-0.608-0.275-0.844-0.462c-0.236-0.187-0.418-0.421-0.548-0.705c-0.13-0.284-0.194-0.637-0.194-1.058
			c0-0.39,0.078-0.738,0.236-1.046c0.158-0.309,0.375-0.569,0.65-0.784c0.275-0.215,0.599-0.379,0.967-0.493
			c0.369-0.113,0.766-0.17,1.186-0.17c0.666,0,1.248,0.118,1.746,0.355c0.498,0.236,0.949,0.567,1.355,0.992l-1.229,1.193
			c-0.275-0.283-0.57-0.5-0.883-0.65c-0.312-0.149-0.662-0.225-1.052-0.225c-0.228,0-0.417,0.022-0.571,0.066
			c-0.154,0.045-0.279,0.104-0.377,0.177c-0.098,0.072-0.166,0.153-0.207,0.242c-0.039,0.089-0.061,0.183-0.061,0.279
			c0,0.138,0.025,0.253,0.078,0.346c0.054,0.094,0.145,0.177,0.273,0.249c0.131,0.073,0.305,0.142,0.523,0.206
			c0.219,0.065,0.498,0.138,0.839,0.219c0.34,0.081,0.679,0.177,1.015,0.285c0.338,0.109,0.641,0.262,0.912,0.455
			c0.271,0.194,0.493,0.441,0.663,0.741s0.255,0.681,0.255,1.142C165.28,7.473,165.215,7.841,165.086,8.172z"/>
		<path fill="#FFFFFF" d="M172.273,9.641V6.064h-3.503v3.576h-1.689V1.129h1.689V4.4h3.503V1.129h1.688v8.512H172.273z"/>
		<path fill="#FFFFFF" d="M182.84,8.078c-0.146,0.345-0.352,0.632-0.614,0.863c-0.263,0.23-0.582,0.404-0.955,0.521
			c-0.372,0.118-0.786,0.178-1.24,0.178h-3.866V1.129h3.903c0.826,0,1.483,0.192,1.97,0.577c0.486,0.386,0.729,0.942,0.729,1.673
			c0,0.364-0.079,0.688-0.237,0.973c-0.158,0.283-0.379,0.511-0.662,0.681c0.34,0.153,0.625,0.385,0.852,0.693
			c0.228,0.308,0.341,0.696,0.341,1.166C183.059,7.339,182.985,7.732,182.84,8.078z M180.797,2.915
			c-0.162-0.137-0.43-0.205-0.803-0.205h-2.164v1.604h2.248c0.356,0,0.606-0.074,0.748-0.223c0.143-0.149,0.213-0.34,0.213-0.573
			C181.04,3.253,180.959,3.052,180.797,2.915z M180.092,5.822h-2.262v2.201h2.262c0.412,0,0.719-0.101,0.918-0.299
			c0.197-0.197,0.298-0.469,0.298-0.809C181.308,6.188,180.902,5.822,180.092,5.822z"/>
		<path fill="#FFFFFF" d="M191.467,7.221c-0.182,0.543-0.439,1.004-0.771,1.381c-0.333,0.377-0.729,0.666-1.191,0.869
			c-0.461,0.202-0.969,0.305-1.521,0.305c-0.56,0-1.067-0.101-1.524-0.299c-0.459-0.197-0.853-0.485-1.181-0.862
			c-0.329-0.378-0.584-0.835-0.767-1.374c-0.184-0.539-0.273-1.153-0.273-1.843c0-0.688,0.092-1.305,0.273-1.848
			s0.439-1.003,0.771-1.38s0.729-0.667,1.191-0.87c0.462-0.202,0.973-0.304,1.531-0.304c0.553,0,1.057,0.1,1.515,0.298
			c0.458,0.199,0.853,0.486,1.181,0.863c0.327,0.377,0.584,0.835,0.766,1.374c0.183,0.539,0.273,1.153,0.273,1.843
			C191.741,6.062,191.649,6.678,191.467,7.221z M189.431,3.391c-0.373-0.47-0.859-0.705-1.459-0.705c-0.601,0-1.081,0.23-1.44,0.693
			c-0.361,0.462-0.541,1.126-0.541,1.994c0,0.867,0.186,1.536,0.559,2.006c0.373,0.471,0.859,0.705,1.459,0.705
			c0.601,0,1.08-0.23,1.441-0.693c0.36-0.461,0.541-1.125,0.541-1.994C189.991,4.529,189.804,3.861,189.431,3.391z"/>
		<path fill="#FFFFFF" d="M198.818,9.641l-0.669-1.896h-3.111l-0.67,1.896h-1.824l3.26-8.512h1.654l3.233,8.512H198.818z
			 M197.019,4.582c-0.089-0.251-0.172-0.494-0.249-0.729c-0.077-0.234-0.137-0.434-0.176-0.596c-0.041,0.162-0.1,0.361-0.178,0.596
			c-0.076,0.235-0.16,0.479-0.248,0.729l-0.549,1.544h1.946L197.019,4.582z"/>
		<path fill="#FFFFFF" d="M207.204,9.641l-1.522-3.063h-1.72v3.063h-1.688V1.129h3.964c0.396,0,0.774,0.055,1.131,0.164
			c0.357,0.109,0.67,0.278,0.938,0.505s0.479,0.509,0.632,0.845c0.153,0.337,0.231,0.731,0.231,1.186
			c0,0.641-0.137,1.166-0.407,1.574c-0.271,0.41-0.681,0.72-1.224,0.931l1.631,3.309h-1.965V9.641z M207.092,3.043
			c-0.215-0.166-0.514-0.248-0.896-0.248h-2.232v2.176h2.232c0.812,0,1.221-0.366,1.221-1.1
			C207.417,3.484,207.308,3.208,207.092,3.043z"/>
		<path fill="#FFFFFF" d="M217.478,7.312c-0.247,0.539-0.575,0.98-0.985,1.326c-0.408,0.344-0.875,0.598-1.396,0.76
			c-0.523,0.162-1.057,0.242-1.6,0.242h-2.541V1.129h2.662c0.607,0,1.17,0.075,1.684,0.225c0.516,0.15,0.962,0.396,1.339,0.736
			c0.377,0.34,0.673,0.78,0.888,1.319s0.322,1.197,0.322,1.976C217.849,6.131,217.725,6.773,217.478,7.312z M215.5,3.442
			c-0.399-0.432-1.051-0.647-1.953-0.647h-0.903v5.18h0.843c0.447,0,0.836-0.062,1.165-0.188s0.601-0.301,0.812-0.526
			c0.213-0.225,0.371-0.497,0.477-0.817c0.105-0.317,0.159-0.67,0.159-1.059C216.098,4.521,215.898,3.874,215.5,3.442z"/>
	</g>
</g>
</svg>
