<?xml version="1.0" encoding="UTF-8" standalone="no"?>
<!-- Created with Inkscape (http://www.inkscape.org/) -->

<svg
   xmlns:svg="http://www.w3.org/2000/svg"
   xmlns="http://www.w3.org/2000/svg"
   version="1.2"
   width="36"
   height="36"
   id="svg3037">
  <defs
     id="defs3039">
    <clipPath
       id="clipPath4429">
      <g
         transform="matrix(0.9947658,0,0,1,1.7860989,0)"
         id="g4431">
        <path
           d="m 322.54143,2800.9375 -4.43505,5.7298 -4.43495,-5.7298 0,-43.1429 -18.93972,0 23.37467,-25.5367 23.13125,25.5367 -18.6962,0 0,43.1429 z"
           id="path4433"
           style="fill:#efa724;fill-opacity:1;fill-rule:evenodd;stroke:none;stroke-width:30;marker:none;visibility:visible;display:inline;overflow:visible" />
      </g>
    </clipPath>
    <clipPath
       id="clipPath10282">
      <rect
         width="262.63214"
         height="262.63214"
         x="179.24065"
         y="2559.6973"
         id="rect10284"
         style="fill:#8c8c8c;fill-opacity:0.95544553;stroke:#000000;stroke-width:1.75826025;stroke-linecap:round;stroke-linejoin:miter;stroke-miterlimit:4;stroke-opacity:0.08910893;stroke-dasharray:none;stroke-dashoffset:0" />
    </clipPath>
  </defs>
  <g
     transform="translate(-177.24873,331.61603)"
     id="layer1">
    <rect
       width="36"
       height="36"
       x="177.24873"
       y="-331.61603"
       id="CENTOSARTWORK"
       style="fill:#ffffff;fill-opacity:0;stroke:none" />
    <flowRoot
       transform="matrix(0.65548386,0,0,0.65548386,66.290853,-93.984037)"
       id="flowRoot4519"
       xml:space="preserve"
       style="font-size:10px;font-style:normal;font-variant:normal;font-weight:200;font-stretch:normal;text-align:start;line-height:125%;writing-mode:lr-tb;text-anchor:start;fill:#000000;fill-opacity:1;stroke:none;font-family:Denmark;-inkscape-font-specification:Denmark Ultra-Light"><flowRegion
         id="flowRegion4521"><rect
           width="299.81326"
           height="299.81326"
           x="36.769554"
           y="133.12337"
           id="rect4523" /></flowRegion><flowPara
         id="flowPara4525"
         style="font-size:30px" /></flowRoot>    <g
       transform="matrix(1.3176035,0,0,1.3176035,-5.2433424,-1139.123)"
       id="g6491" />
    <g
       transform="matrix(0.66763437,0,0,0.66763437,-297.68191,-639.60786)"
       clip-path="url(#clipPath10282)"
       id="g3880"
       style="stroke:#ffffff;stroke-width:0.35433072;stroke-miterlimit:4;stroke-opacity:1;stroke-dasharray:none" />
    <g
       transform="matrix(0.65548386,0,0,0.65548386,-106.37926,-658.07625)"
       id="g10302">
      <g
         transform="matrix(1.0666663,0,0,1,-26.935596,-4.1328125e-5)"
         id="g10304" />
      <g
         transform="matrix(1.0722788,0,0,1,-28.850792,-4.1328125e-5)"
         clip-path="url(#clipPath4429)"
         id="g10308" />
    </g>
    <g
       transform="matrix(0.04916129,0,0,0.04916129,184.13169,-367.88138)"
       id="g9335">
      <g
         transform="matrix(1.1808679,0,0,1.1808679,586.42082,-1141.3723)"
         id="g13583">
        <g
           transform="translate(-556.83343,-494.55601)"
           id="g13467">
          <g
             transform="matrix(0,-3.7770771,3.7770771,0,-6968.6287,3636.3048)"
             id="g13395">
            <g
               transform="translate(16.279512,-899.16723)"
               id="g13397">
              <g
                 transform="matrix(1.0666663,0,0,1,-26.935596,-4.1328125e-5)"
                 id="g13399">
                <path
                   d="m 323.36653,2798.1614 -5.40616,5.8005 -5.40616,-5.8005 0,-40.8261 -18.01333,0 23.41949,-24.8979 23.02487,24.8979 -17.6187,0 -10e-6,40.8261 z"
                   id="path13401"
                   style="fill:#932279;fill-opacity:1;fill-rule:evenodd;stroke:none;stroke-width:30;marker:none;visibility:visible;display:inline;overflow:visible" />
              </g>
              <g
                 transform="matrix(1.0722788,0,0,1,-28.850792,-4.1328125e-5)"
                 clip-path="url(#clipPath4429)"
                 id="g13405" />
            </g>
          </g>
          <g
             transform="matrix(3.7770771,0,0,3.7770771,-988.70982,-4824.4941)"
             id="g13407">
            <g
               transform="translate(16.279512,-899.16723)"
               id="g13409">
              <g
                 transform="matrix(1.0666663,0,0,1,-26.935596,-4.1328125e-5)"
                 id="g13411">
                <path
                   d="m 323.36653,2798.1614 -5.40616,5.8005 -5.40616,-5.8005 0,-40.8261 -18.01333,0 23.41949,-24.8979 23.02487,24.8979 -17.6187,0 -10e-6,40.8261 z"
                   id="path13413"
                   style="fill:#efa724;fill-opacity:1;fill-rule:evenodd;stroke:none;stroke-width:30;marker:none;visibility:visible;display:inline;overflow:visible" />
              </g>
              <g
                 transform="matrix(1.0722788,0,0,1,-28.850792,-4.1328125e-5)"
                 clip-path="url(#clipPath4429)"
                 id="g13417" />
            </g>
          </g>
          <g
             transform="matrix(0,3.7770771,-3.7770771,0,10868.313,1216.9132)"
             id="g13419">
            <g
               transform="matrix(1.0666663,0,0,1,-26.935596,-4.1328125e-5)"
               id="g13421">
              <path
                 d="m 323.36653,2798.1614 -5.40616,5.8005 -5.40616,-5.8005 0,-40.8261 -18.01333,0 23.41949,-24.8979 23.02487,24.8979 -17.6187,0 -10e-6,40.8261 z"
                 id="path13423"
                 style="fill:#262577;fill-opacity:1;fill-rule:evenodd;stroke:none;stroke-width:30;marker:none;visibility:visible;display:inline;overflow:visible" />
            </g>
            <g
               transform="matrix(1.0722788,0,0,1,-28.850792,-4.1328125e-5)"
               clip-path="url(#clipPath4429)"
               id="g13427" />
          </g>
          <g
             transform="matrix(-3.7770771,0,0,-3.7770771,1492.1701,9616.2232)"
             id="g13429">
            <g
               transform="translate(16.279512,-899.16723)"
               id="g13431">
              <g
                 transform="matrix(1.0666663,0,0,1,-26.935596,-4.1328125e-5)"
                 id="g13433">
                <path
                   d="m 323.36653,2798.1614 -5.40616,5.8005 -5.40616,-5.8005 0,-40.8261 -18.01333,0 23.41949,-24.8979 23.02487,24.8979 -17.6187,0 -10e-6,40.8261 z"
                   id="path13435"
                   style="fill:#9ccd2a;fill-opacity:1;fill-rule:evenodd;stroke:none;stroke-width:30;marker:none;visibility:visible;display:inline;overflow:visible" />
              </g>
              <g
                 transform="matrix(1.0722788,0,0,1,-28.850792,-4.1328125e-5)"
                 clip-path="url(#clipPath4429)"
                 id="g13439" />
            </g>
          </g>
          <g
             transform="matrix(3.7770771,0,0,3.7770771,-2493.849,-6445.1798)"
             id="g13441">
            <rect
               width="49.606449"
               height="49.606449"
               x="671.98438"
               y="2285.7893"
               id="rect13443"
               style="fill:#9ccd2a;fill-opacity:1;stroke:#ffffff;stroke-width:3.54330707;stroke-linecap:butt;stroke-linejoin:miter;stroke-miterlimit:4;stroke-opacity:1;stroke-dasharray:none;stroke-dashoffset:0" />
            <rect
               width="49.606449"
               height="49.606449"
               x="732.22076"
               y="2285.7893"
               id="rect13445"
               style="fill:#932279;fill-opacity:1;stroke:#ffffff;stroke-width:3.54330707;stroke-linecap:butt;stroke-linejoin:miter;stroke-miterlimit:4;stroke-opacity:1;stroke-dasharray:none;stroke-dashoffset:0" />
            <rect
               width="49.606449"
               height="49.606449"
               x="732.22076"
               y="2346.0256"
               id="rect13447"
               style="fill:#efa724;fill-opacity:1;stroke:#ffffff;stroke-width:3.54330707;stroke-linecap:butt;stroke-linejoin:miter;stroke-miterlimit:4;stroke-opacity:1;stroke-dasharray:none;stroke-dashoffset:0" />
            <rect
               width="49.606449"
               height="49.606449"
               x="671.98438"
               y="2346.0256"
               id="rect13449"
               style="fill:#262577;fill-opacity:1;stroke:#ffffff;stroke-width:3.54330707;stroke-linecap:butt;stroke-linejoin:miter;stroke-miterlimit:4;stroke-opacity:1;stroke-dasharray:none;stroke-dashoffset:0" />
          </g>
          <rect
             width="187.36739"
             height="187.36739"
             x="-1723.575"
             y="1664.6902"
             transform="matrix(0.7071068,-0.7071068,0.7071068,0.7071068,0,0)"
             id="rect13459"
             style="fill:none;stroke:#ffffff;stroke-width:13.38334465;stroke-linecap:butt;stroke-linejoin:miter;stroke-miterlimit:4;stroke-opacity:1;stroke-dasharray:none;stroke-dashoffset:0" />
          <rect
             width="187.36739"
             height="187.36739"
             x="-1496.0573"
             y="1664.6902"
             transform="matrix(0.7071068,-0.7071068,0.7071068,0.7071068,0,0)"
             id="rect13461"
             style="fill:none;stroke:#ffffff;stroke-width:13.38334465;stroke-linecap:butt;stroke-linejoin:miter;stroke-miterlimit:4;stroke-opacity:1;stroke-dasharray:none;stroke-dashoffset:0" />
          <rect
             width="187.36739"
             height="187.36739"
             x="-1496.0573"
             y="1892.2074"
             transform="matrix(0.7071068,-0.7071068,0.7071068,0.7071068,0,0)"
             id="rect13463"
             style="fill:none;stroke:#ffffff;stroke-width:13.38334465;stroke-linecap:butt;stroke-linejoin:miter;stroke-miterlimit:4;stroke-opacity:1;stroke-dasharray:none;stroke-dashoffset:0" />
          <rect
             width="187.36739"
             height="187.36739"
             x="-1723.575"
             y="1892.2074"
             transform="matrix(0.7071068,-0.7071068,0.7071068,0.7071068,0,0)"
             id="rect13465"
             style="fill:none;stroke:#ffffff;stroke-width:13.38334465;stroke-linecap:butt;stroke-linejoin:miter;stroke-miterlimit:4;stroke-opacity:1;stroke-dasharray:none;stroke-dashoffset:0" />
        </g>
      </g>
    </g>
  </g>
</svg>
