<?xml version="1.0" encoding="UTF-8" standalone="no"?>
<!-- Created with Inkscape (http://www.inkscape.org/) -->

<svg
   xmlns:svg="http://www.w3.org/2000/svg"
   xmlns="http://www.w3.org/2000/svg"
   version="1.2"
   width="448.50739"
   height="157.74001"
   id="svg3037">
  <defs
     id="defs3039">
    <clipPath
       id="clipPath4429">
      <g
         transform="matrix(0.9947658,0,0,1,1.7860989,0)"
         id="g4431">
        <path
           d="m 322.54143,2800.9375 -4.43505,5.7298 -4.43495,-5.7298 0,-43.1429 -18.93972,0 23.37467,-25.5367 23.13125,25.5367 -18.6962,0 0,43.1429 z"
           id="path4433"
           style="fill:#efa724;fill-opacity:1;fill-rule:evenodd;stroke:none;stroke-width:30;marker:none;visibility:visible;display:inline;overflow:visible" />
      </g>
    </clipPath>
    <clipPath
       id="clipPath10282">
      <rect
         width="262.63214"
         height="262.63214"
         x="179.24065"
         y="2559.6973"
         id="rect10284"
         style="fill:#8c8c8c;fill-opacity:0.95544553;stroke:#000000;stroke-width:1.75826025;stroke-linecap:round;stroke-linejoin:miter;stroke-miterlimit:4;stroke-opacity:0.08910893;stroke-dasharray:none;stroke-dashoffset:0" />
    </clipPath>
  </defs>
  <g
     transform="translate(-177.24873,453.35602)"
     id="layer1">
    <rect
       width="448.50739"
       height="157.74001"
       x="177.24873"
       y="-453.35602"
       id="CENTOSARTWORK"
       style="fill:#ffffff;fill-opacity:0;stroke:none" />
    <flowRoot
       transform="matrix(0.87397848,0,0,0.87397848,29.304893,-26.77337)"
       id="flowRoot4519"
       xml:space="preserve"
       style="font-size:10px;font-style:normal;font-variant:normal;font-weight:200;font-stretch:normal;text-align:start;line-height:125%;writing-mode:lr-tb;text-anchor:start;fill:#000000;fill-opacity:1;stroke:none;font-family:Denmark;-inkscape-font-specification:Denmark Ultra-Light"><flowRegion
         id="flowRegion4521"><rect
           width="299.81326"
           height="299.81326"
           x="36.769554"
           y="133.12337"
           id="rect4523" /></flowRegion><flowPara
         id="flowPara4525"
         style="font-size:30px" /></flowRoot>    <g
       transform="matrix(1.7568047,0,0,1.7568047,-66.074034,-1420.292)"
       id="g6491" />
    <g
       transform="matrix(0.89017916,0,0,0.89017916,-455.99213,-754.2718)"
       clip-path="url(#clipPath10282)"
       id="g3880"
       style="stroke:#ffffff;stroke-width:0.35433072;stroke-miterlimit:4;stroke-opacity:1;stroke-dasharray:none" />
    <g
       transform="matrix(0.87397848,0,0,0.87397848,-200.92193,-778.89632)"
       id="g10302">
      <g
         transform="matrix(1.0666663,0,0,1,-26.935596,-4.1328125e-5)"
         id="g10304" />
      <g
         transform="matrix(1.0722788,0,0,1,-28.850792,-4.1328125e-5)"
         clip-path="url(#clipPath4429)"
         id="g10308" />
    </g>
    <g
       transform="matrix(0.2154084,0,0,0.2154084,207.40756,-612.25868)"
       id="g9335">
      <g
         transform="matrix(1.1808679,0,0,1.1808679,586.42082,-1141.3723)"
         id="g13583">
        <g
           transform="translate(-556.83343,-494.55601)"
           id="g13467">
          <g
             transform="matrix(0,-3.7770771,3.7770771,0,-6968.6287,3636.3048)"
             id="g13395">
            <g
               transform="translate(16.279512,-899.16723)"
               id="g13397">
              <g
                 transform="matrix(1.0666663,0,0,1,-26.935596,-4.1328125e-5)"
                 id="g13399">
                <path
                   d="m 323.36653,2798.1614 -5.40616,5.8005 -5.40616,-5.8005 0,-40.8261 -18.01333,0 23.41949,-24.8979 23.02487,24.8979 -17.6187,0 -10e-6,40.8261 z"
                   id="path13401"
                   style="fill:#932279;fill-opacity:1;fill-rule:evenodd;stroke:none;stroke-width:30;marker:none;visibility:visible;display:inline;overflow:visible" />
              </g>
              <g
                 transform="matrix(1.0722788,0,0,1,-28.850792,-4.1328125e-5)"
                 clip-path="url(#clipPath4429)"
                 id="g13405" />
            </g>
          </g>
          <g
             transform="matrix(3.7770771,0,0,3.7770771,-988.70982,-4824.4941)"
             id="g13407">
            <g
               transform="translate(16.279512,-899.16723)"
               id="g13409">
              <g
                 transform="matrix(1.0666663,0,0,1,-26.935596,-4.1328125e-5)"
                 id="g13411">
                <path
                   d="m 323.36653,2798.1614 -5.40616,5.8005 -5.40616,-5.8005 0,-40.8261 -18.01333,0 23.41949,-24.8979 23.02487,24.8979 -17.6187,0 -10e-6,40.8261 z"
                   id="path13413"
                   style="fill:#efa724;fill-opacity:1;fill-rule:evenodd;stroke:none;stroke-width:30;marker:none;visibility:visible;display:inline;overflow:visible" />
              </g>
              <g
                 transform="matrix(1.0722788,0,0,1,-28.850792,-4.1328125e-5)"
                 clip-path="url(#clipPath4429)"
                 id="g13417" />
            </g>
          </g>
          <g
             transform="matrix(0,3.7770771,-3.7770771,0,10868.313,1216.9132)"
             id="g13419">
            <g
               transform="matrix(1.0666663,0,0,1,-26.935596,-4.1328125e-5)"
               id="g13421">
              <path
                 d="m 323.36653,2798.1614 -5.40616,5.8005 -5.40616,-5.8005 0,-40.8261 -18.01333,0 23.41949,-24.8979 23.02487,24.8979 -17.6187,0 -10e-6,40.8261 z"
                 id="path13423"
                 style="fill:#262577;fill-opacity:1;fill-rule:evenodd;stroke:none;stroke-width:30;marker:none;visibility:visible;display:inline;overflow:visible" />
            </g>
            <g
               transform="matrix(1.0722788,0,0,1,-28.850792,-4.1328125e-5)"
               clip-path="url(#clipPath4429)"
               id="g13427" />
          </g>
          <g
             transform="matrix(-3.7770771,0,0,-3.7770771,1492.1701,9616.2232)"
             id="g13429">
            <g
               transform="translate(16.279512,-899.16723)"
               id="g13431">
              <g
                 transform="matrix(1.0666663,0,0,1,-26.935596,-4.1328125e-5)"
                 id="g13433">
                <path
                   d="m 323.36653,2798.1614 -5.40616,5.8005 -5.40616,-5.8005 0,-40.8261 -18.01333,0 23.41949,-24.8979 23.02487,24.8979 -17.6187,0 -10e-6,40.8261 z"
                   id="path13435"
                   style="fill:#9ccd2a;fill-opacity:1;fill-rule:evenodd;stroke:none;stroke-width:30;marker:none;visibility:visible;display:inline;overflow:visible" />
              </g>
              <g
                 transform="matrix(1.0722788,0,0,1,-28.850792,-4.1328125e-5)"
                 clip-path="url(#clipPath4429)"
                 id="g13439" />
            </g>
          </g>
          <g
             transform="matrix(3.7770771,0,0,3.7770771,-2493.849,-6445.1798)"
             id="g13441">
            <rect
               width="49.606449"
               height="49.606449"
               x="671.98438"
               y="2285.7893"
               id="rect13443"
               style="fill:#9ccd2a;fill-opacity:1;stroke:#ffffff;stroke-width:3.54330707;stroke-linecap:butt;stroke-linejoin:miter;stroke-miterlimit:4;stroke-opacity:1;stroke-dasharray:none;stroke-dashoffset:0" />
            <rect
               width="49.606449"
               height="49.606449"
               x="732.22076"
               y="2285.7893"
               id="rect13445"
               style="fill:#932279;fill-opacity:1;stroke:#ffffff;stroke-width:3.54330707;stroke-linecap:butt;stroke-linejoin:miter;stroke-miterlimit:4;stroke-opacity:1;stroke-dasharray:none;stroke-dashoffset:0" />
            <rect
               width="49.606449"
               height="49.606449"
               x="732.22076"
               y="2346.0256"
               id="rect13447"
               style="fill:#efa724;fill-opacity:1;stroke:#ffffff;stroke-width:3.54330707;stroke-linecap:butt;stroke-linejoin:miter;stroke-miterlimit:4;stroke-opacity:1;stroke-dasharray:none;stroke-dashoffset:0" />
            <rect
               width="49.606449"
               height="49.606449"
               x="671.98438"
               y="2346.0256"
               id="rect13449"
               style="fill:#262577;fill-opacity:1;stroke:#ffffff;stroke-width:3.54330707;stroke-linecap:butt;stroke-linejoin:miter;stroke-miterlimit:4;stroke-opacity:1;stroke-dasharray:none;stroke-dashoffset:0" />
          </g>
          <rect
             width="187.36739"
             height="187.36739"
             x="-1723.575"
             y="1664.6902"
             transform="matrix(0.7071068,-0.7071068,0.7071068,0.7071068,0,0)"
             id="rect13459"
             style="fill:none;stroke:#ffffff;stroke-width:13.38334465;stroke-linecap:butt;stroke-linejoin:miter;stroke-miterlimit:4;stroke-opacity:1;stroke-dasharray:none;stroke-dashoffset:0" />
          <rect
             width="187.36739"
             height="187.36739"
             x="-1496.0573"
             y="1664.6902"
             transform="matrix(0.7071068,-0.7071068,0.7071068,0.7071068,0,0)"
             id="rect13461"
             style="fill:none;stroke:#ffffff;stroke-width:13.38334465;stroke-linecap:butt;stroke-linejoin:miter;stroke-miterlimit:4;stroke-opacity:1;stroke-dasharray:none;stroke-dashoffset:0" />
          <rect
             width="187.36739"
             height="187.36739"
             x="-1496.0573"
             y="1892.2074"
             transform="matrix(0.7071068,-0.7071068,0.7071068,0.7071068,0,0)"
             id="rect13463"
             style="fill:none;stroke:#ffffff;stroke-width:13.38334465;stroke-linecap:butt;stroke-linejoin:miter;stroke-miterlimit:4;stroke-opacity:1;stroke-dasharray:none;stroke-dashoffset:0" />
          <rect
             width="187.36739"
             height="187.36739"
             x="-1723.575"
             y="1892.2074"
             transform="matrix(0.7071068,-0.7071068,0.7071068,0.7071068,0,0)"
             id="rect13465"
             style="fill:none;stroke:#ffffff;stroke-width:13.38334465;stroke-linecap:butt;stroke-linejoin:miter;stroke-miterlimit:4;stroke-opacity:1;stroke-dasharray:none;stroke-dashoffset:0" />
        </g>
      </g>
    </g>
    <g
       transform="matrix(1.4367584,0,0,1.4360559,1899.6083,-1416.0985)"
       id="text4851"
       style="font-size:48.94070435px;font-style:normal;font-variant:normal;font-weight:200;font-stretch:normal;fill:#000000;fill-opacity:1;stroke:none;font-family:Denmark;-inkscape-font-specification:Denmark Ultra-Light">
      <path
         d="m -1041.8983,742.45782 -15.1227,0 c -1.5335,0 -3.0507,-0.21207 -4.5515,-0.63622 -2.9038,-0.88094 -5.204,-2.90382 -6.9006,-6.06865 -1.5335,-2.87118 -2.3003,-6.21546 -2.3003,-10.03285 0,-3.68684 0.6852,-6.94955 2.0556,-9.78814 1.5008,-3.13217 3.6379,-5.26925 6.4112,-6.41123 2.1534,-0.8809 4.3557,-1.32136 6.607,-1.3214 l 13.7034,0 0,6.55806 -14.2418,0 c -2.3165,2e-5 -3.9968,1.25617 -5.0409,3.76843 -0.8156,1.95765 -1.2235,4.51888 -1.2235,7.68369 0,2.67544 0.522,4.94302 1.5661,6.80276 1.2072,2.18602 2.9038,3.27903 5.0899,3.27903 l 13.9481,-0.0489 0,6.21546"
         id="path5043" />
      <path
         d="m -1016.7122,742.60465 -11.9416,0 c -2.9038,0 -5.4324,-1.23983 -7.5858,-3.7195 -2.1207,-2.51228 -3.1811,-5.39978 -3.1811,-8.6625 0,-3.55634 1.1582,-6.62329 3.4748,-9.20085 2.3491,-2.61015 4.9593,-3.91523 7.8305,-3.91526 l 11.3542,0 0,5.23666 -8.3199,0 c -1.0441,2e-5 -1.9413,0.0979 -2.6917,0.29364 -0.7178,0.16315 -1.3867,0.50574 -2.0066,1.02775 -1.142,0.97884 -1.7129,2.30023 -1.7129,3.9642 l 14.6822,0 0,5.2856 -14.6333,0 c 0,0.78306 0.082,1.45191 0.2447,2.00657 0.1958,0.52204 0.571,1.06038 1.1257,1.61504 0.5546,0.52204 1.2071,0.88094 1.9576,1.07669 0.783,0.16315 1.7292,0.24471 2.8385,0.24471 l 8.5647,0 0,4.74725"
         id="path5045" />
      <path
         d="m -988.8038,742.45782 -6.80275,0 0,-16.68878 c -2e-5,-0.42413 -0.0979,-0.79934 -0.29365,-1.12563 -0.19578,-0.35888 -0.47311,-0.70147 -0.83199,-1.02776 -0.65256,-0.55464 -1.40298,-0.83197 -2.25127,-0.83199 l -6.65594,0 0,19.67416 -6.8028,0 0,-25.35128 13.01827,0 c 2.31651,3e-5 3.99681,0.13053 5.04089,0.39153 1.63134,0.39155 2.93642,1.25616 3.91526,2.59385 1.1093,1.56613 1.66396,3.27905 1.66398,5.13878 l 0,17.22712"
         id="path5047" />
      <path
         d="m -969.36134,722.39214 -6.60699,0 0,11.50106 c -10e-6,1.04408 0.35888,1.9087 1.07669,2.59386 0.81567,0.68517 1.89236,1.02776 3.23009,1.02775 l 2.00657,0 0,4.94301 -6.31335,0 c -1.89239,0 -3.50743,-0.68516 -4.84513,-2.0555 -0.78306,-0.81568 -1.28878,-1.71293 -1.51717,-2.69174 -0.22839,-0.97881 -0.34258,-2.13707 -0.34258,-3.47479 l 0,-11.84365 -4.30678,0 0,-5.2856 4.30678,0 0,-8.90721 6.70488,0 0,8.90721 6.60699,0 0,5.2856"
         id="path5049" />
      <path
         d="m -929.32784,725.27964 c -4e-5,6.65594 -1.84347,11.4195 -5.5303,14.29068 -3.00173,2.31653 -7.37376,3.47479 -13.11611,3.47479 -6.3623,0 -11.06061,-1.33771 -14.09492,-4.01313 -3.32797,-2.93644 -4.99195,-7.65106 -4.99195,-14.14387 0,-5.3182 1.48453,-9.46184 4.4536,-12.43094 3.23008,-3.23005 8.05889,-4.84509 14.48645,-4.84513 7.08006,4e-5 12.07201,1.54983 14.97586,4.64937 2.54488,2.74071 3.81733,7.08011 3.81737,13.01823 m -8.71144,-0.19577 c -3e-5,-3.36057 -0.7994,-6.03599 -2.3981,-8.02627 -1.79452,-2.21862 -4.45363,-3.32794 -7.97733,-3.32797 -3.4585,3e-5 -6.06866,1.19092 -7.83052,3.57267 -1.46823,1.99028 -2.20234,4.58414 -2.20233,7.78157 -1e-5,3.68688 0.58728,6.41125 1.76187,8.1731 1.63134,2.44704 4.64935,3.67056 9.05403,3.67056 3.71947,0 6.32964,-1.19089 7.83051,-3.57268 1.17455,-1.85973 1.76184,-4.61672 1.76187,-8.27098"
         id="path5051" />
      <path
         d="m -890.1531,731.83769 c -4e-5,3.00171 -0.99516,5.53031 -2.98538,7.58581 -1.99029,2.05551 -4.51889,3.08327 -7.58581,3.08327 l -24.22565,-0.0489 0,-6.16652 19.96781,0 c 1.33768,0 2.46332,-0.30996 3.37691,-0.92988 1.04404,-0.71779 1.56607,-1.6966 1.5661,-2.93644 -3e-5,-2.9038 -2.05554,-4.35571 -6.16653,-4.35572 l -10.08179,0 c -2.90382,10e-6 -5.44873,-0.89723 -7.63475,-2.69174 -2.18602,-1.79447 -3.27902,-4.07837 -3.27902,-6.8517 0,-3.06692 1.06038,-5.54658 3.18114,-7.43899 2.15339,-1.92496 4.97563,-2.88746 8.46675,-2.8875 l 23.14895,0 0,5.87289 -20.40828,0 c -0.91357,2e-5 -1.84344,0.39155 -2.78962,1.17457 -0.91357,0.75045 -1.37035,1.6477 -1.37034,2.69174 -10e-6,1.1746 0.44046,2.16973 1.3214,2.98538 0.91355,0.78308 2.00656,1.1746 3.27903,1.17458 l 11.10954,0 c 3.45845,2e-5 6.1665,0.89727 8.12416,2.69174 1.99022,1.76188 2.98534,4.11103 2.98538,7.04746"
         id="path5053" />
    </g>
  </g>
</svg>
